<svg xmlns="http://www.w3.org/2000/svg" xmlns:xlink="http://www.w3.org/1999/xlink" width="307" height="326"><path d="M0 0h307v326H0z" fill="transparent"/><g fill="#fff" transform="translate(-144.1 -257.9)"><path d="M199.1 288.9v-2h-2v-2h-4v-2h-4v-2h-10v2h-4v2h-4v2h-2v2h-2v41h4v-2h5v2h5v-2h6v2h5v-2h5v2h4v-41zm150 0v-2h-2v-2h-4v-2h-4v-2h-10v2h-4v2h-4v2h-2v2h-2v41h4v-2h5v2h5v-2h6v2h5v-2h5v2h4v-41zm45 33v2h2v2h4v2h4v2h10v-2h4v-2h4v-2h2v-2h2v-41h-4v2h-5v-2h-5v2h-6v-2h-5v2h-5v-2h-4v41zm-150 0v2h2v2h4v2h4v2h10v-2h4v-2h4v-2h2v-2h2v-41h-4v2h-5v-2h-5v2h-6v-2h-5v2h-5v-2h-4v41z"/><use xlink:href="#a" width="100%" height="100%"/><use xlink:href="#b" width="100%" height="100%"/><use xlink:href="#a" x="-150" width="100%" height="100%"/><use xlink:href="#b" x="-150" width="100%" height="100%"/><use xlink:href="#b" x="-75" y="-77" width="100%" height="100%"/><use xlink:href="#b" x="75" y="-77" width="100%" height="100%"/><use xlink:href="#a" x="-225" y="-77" width="100%" height="100%"/><use xlink:href="#a" x="-75" y="-77" width="100%" height="100%"/><use xlink:href="#b" y="-154" width="100%" height="100%"/><use xlink:href="#a" x="-150" y="-154" width="100%" height="100%"/><use xlink:href="#b" x="-150" y="-154" width="100%" height="100%"/><use xlink:href="#a" y="-154" width="100%" height="100%"/></g><defs><path id="a" d="M392.1 519.9v41h4v-2h5v2h5v-2h6v2h5v-2h5v2h4v-41h-2v-2h-2v-2h-4v-2h-4v-2h-10v2h-4v2h-4v2h-2v2z"/><path id="b" d="M351.1 552.9v-41h-4v2h-5v-2h-5v2h-6v-2h-5v2h-5v-2h-4v41h2v2h2v2h4v2h4v2h10v-2h4v-2h4v-2h2v-2z"/></defs></svg>